<svg width="101" height="19" viewBox="0 0 101 19" fill="none" xmlns="http://www.w3.org/2000/svg">
<path d="M13.4199 9.45361V15.9336C13.1654 16.2406 12.7723 16.5737 12.2407 16.9331C11.7091 17.285 11.0241 17.5882 10.1855 17.8428C9.34701 18.0973 8.33252 18.2246 7.14209 18.2246C6.08643 18.2246 5.12435 18.0524 4.25586 17.708C3.38737 17.3561 2.63867 16.8433 2.00977 16.1694C1.38835 15.4956 0.90918 14.672 0.572266 13.6987C0.235352 12.7179 0.0668945 11.5986 0.0668945 10.3408V9.31885C0.0668945 8.06104 0.227865 6.94173 0.549805 5.96094C0.879232 4.98014 1.34717 4.15283 1.95361 3.479C2.56006 2.80518 3.28255 2.29232 4.12109 1.94043C4.95964 1.58854 5.89176 1.4126 6.91748 1.4126C8.34001 1.4126 9.50798 1.64469 10.4214 2.10889C11.3348 2.56559 12.0311 3.20199 12.5103 4.01807C12.9969 4.82666 13.2964 5.75505 13.4087 6.80322H10.1406C10.0583 6.24919 9.90104 5.76628 9.66895 5.35449C9.43685 4.94271 9.10368 4.62077 8.66943 4.38867C8.24268 4.15658 7.68864 4.04053 7.00732 4.04053C6.4458 4.04053 5.94417 4.15658 5.50244 4.38867C5.0682 4.61328 4.70133 4.94645 4.40186 5.38818C4.10238 5.82992 3.87402 6.37646 3.7168 7.02783C3.55957 7.6792 3.48096 8.43538 3.48096 9.29639V10.3408C3.48096 11.1943 3.56331 11.9505 3.72803 12.6094C3.89274 13.2607 4.13607 13.811 4.45801 14.2603C4.78743 14.702 5.19173 15.0352 5.6709 15.2598C6.15007 15.4844 6.70785 15.5967 7.34424 15.5967C7.87581 15.5967 8.31755 15.5518 8.66943 15.4619C9.02881 15.3721 9.31706 15.2635 9.53418 15.1362C9.75879 15.0015 9.93099 14.8742 10.0508 14.7544V11.8569H6.97363V9.45361H13.4199ZM22.7861 4.44482L18.3389 18H14.7563L20.832 1.64844H23.1118L22.7861 4.44482ZM26.481 18L22.0225 4.44482L21.6631 1.64844H23.9653L30.0747 18H26.481ZM26.2788 11.9131V14.5522H17.6426V11.9131H26.2788ZM44.8989 1.64844V18H41.5298L34.96 7.03906V18H31.5908V1.64844H34.96L41.541 12.6206V1.64844H44.8989ZM52.8501 18H49.29L49.3125 15.3721H52.8501C53.7336 15.3721 54.4785 15.1737 55.085 14.7769C55.6914 14.3726 56.1481 13.7848 56.4551 13.0137C56.7695 12.2425 56.9268 11.3104 56.9268 10.2173V9.41992C56.9268 8.58138 56.8369 7.84391 56.6572 7.20752C56.485 6.57113 56.2267 6.03581 55.8823 5.60156C55.5379 5.16732 55.1149 4.84163 54.6133 4.62451C54.1117 4.3999 53.5352 4.2876 52.8838 4.2876H49.2227V1.64844H52.8838C53.9769 1.64844 54.9764 1.83561 55.8823 2.20996C56.7957 2.57682 57.5856 3.10465 58.252 3.79346C58.9183 4.48226 59.4312 5.30583 59.7905 6.26416C60.1574 7.21501 60.3408 8.27441 60.3408 9.44238V10.2173C60.3408 11.3778 60.1574 12.4372 59.7905 13.3955C59.4312 14.3538 58.9183 15.1774 58.252 15.8662C57.5931 16.5475 56.8032 17.0754 55.8823 17.4497C54.9689 17.8166 53.9582 18 52.8501 18ZM51.1992 1.64844V18H47.8301V1.64844H51.1992ZM66.3716 1.64844V18H63.0137V1.64844H66.3716ZM75.895 14.6421C75.895 14.41 75.8276 14.2004 75.6929 14.0132C75.5581 13.826 75.3073 13.6538 74.9404 13.4966C74.5811 13.3319 74.0607 13.1821 73.3794 13.0474C72.7655 12.9126 72.1927 12.7441 71.6611 12.542C71.137 12.3324 70.6803 12.0815 70.291 11.7896C69.9092 11.4976 69.6097 11.1532 69.3926 10.7563C69.1755 10.3521 69.0669 9.8916 69.0669 9.375C69.0669 8.86589 69.1755 8.38672 69.3926 7.9375C69.6172 7.48828 69.9354 7.09147 70.3472 6.74707C70.7664 6.39518 71.2756 6.12191 71.8745 5.92725C72.481 5.7251 73.1623 5.62402 73.9185 5.62402C74.9741 5.62402 75.88 5.79248 76.6362 6.12939C77.3999 6.46631 77.9839 6.9305 78.3882 7.52197C78.8 8.10596 79.0059 8.7723 79.0059 9.521H75.7715C75.7715 9.20654 75.7041 8.92578 75.5693 8.67871C75.4421 8.42415 75.2399 8.22575 74.9629 8.0835C74.6934 7.93376 74.3415 7.85889 73.9072 7.85889C73.5479 7.85889 73.2371 7.92253 72.9751 8.0498C72.7131 8.1696 72.5109 8.33431 72.3687 8.54395C72.2339 8.74609 72.1665 8.9707 72.1665 9.21777C72.1665 9.40495 72.2039 9.5734 72.2788 9.72314C72.3612 9.8654 72.4922 9.99642 72.6719 10.1162C72.8516 10.236 73.0837 10.3483 73.3682 10.4531C73.6602 10.5505 74.0195 10.6403 74.4463 10.7227C75.3223 10.9023 76.1047 11.1382 76.7935 11.4302C77.4823 11.7147 78.0288 12.104 78.4331 12.5981C78.8374 13.0848 79.0396 13.7249 79.0396 14.5186C79.0396 15.0576 78.9198 15.5518 78.6802 16.001C78.4406 16.4502 78.0962 16.8433 77.647 17.1802C77.1978 17.5096 76.6587 17.7679 76.0298 17.9551C75.4084 18.1348 74.7083 18.2246 73.9297 18.2246C72.7992 18.2246 71.8408 18.0225 71.0547 17.6182C70.276 17.2139 69.6846 16.701 69.2803 16.0796C68.8835 15.4507 68.6851 14.8068 68.6851 14.1479H71.751C71.766 14.5897 71.8783 14.9453 72.0879 15.2148C72.305 15.4844 72.5783 15.679 72.9077 15.7988C73.2446 15.9186 73.6077 15.9785 73.9971 15.9785C74.4163 15.9785 74.7645 15.9224 75.0415 15.8101C75.3185 15.6903 75.5282 15.533 75.6704 15.3384C75.8201 15.1362 75.895 14.9041 75.895 14.6421ZM81.1396 0.75H84.374V15.2148L84.0483 18H81.1396V0.75ZM92.0669 11.8008V12.0366C92.0669 12.9425 91.9696 13.7736 91.7749 14.5298C91.5877 15.286 91.2957 15.9411 90.8989 16.4951C90.5021 17.0417 90.008 17.4684 89.4165 17.7754C88.8325 18.0749 88.1437 18.2246 87.3501 18.2246C86.6089 18.2246 85.965 18.0749 85.4185 17.7754C84.8794 17.4759 84.4264 17.0529 84.0596 16.5063C83.6927 15.9598 83.397 15.3197 83.1724 14.5859C82.9478 13.8522 82.7793 13.0511 82.667 12.1826V11.666C82.7793 10.7975 82.9478 9.99642 83.1724 9.2627C83.397 8.52897 83.6927 7.88883 84.0596 7.34229C84.4264 6.79574 84.8794 6.37272 85.4185 6.07324C85.9575 5.77376 86.5939 5.62402 87.3276 5.62402C88.1287 5.62402 88.825 5.77751 89.4165 6.08447C90.0155 6.38395 90.5096 6.81071 90.8989 7.36475C91.2957 7.9113 91.5877 8.56266 91.7749 9.31885C91.9696 10.0675 92.0669 10.8949 92.0669 11.8008ZM88.8325 12.0366V11.8008C88.8325 11.3066 88.7951 10.8424 88.7202 10.4082C88.6528 9.96647 88.533 9.58089 88.3608 9.25146C88.1886 8.91455 87.9528 8.64876 87.6533 8.4541C87.3613 8.25944 86.9832 8.16211 86.519 8.16211C86.0773 8.16211 85.703 8.23698 85.396 8.38672C85.089 8.53646 84.8345 8.74609 84.6323 9.01562C84.4377 9.28516 84.2917 9.6071 84.1943 9.98145C84.097 10.3483 84.0371 10.7526 84.0146 11.1943V12.6655C84.0371 13.257 84.1344 13.7811 84.3066 14.2378C84.4863 14.687 84.7559 15.0426 85.1152 15.3047C85.4821 15.5592 85.9575 15.6865 86.5415 15.6865C86.9982 15.6865 87.3763 15.5967 87.6758 15.417C87.9753 15.2373 88.2074 14.9827 88.3721 14.6533C88.5443 14.3239 88.6641 13.9383 88.7314 13.4966C88.7988 13.0474 88.8325 12.5607 88.8325 12.0366ZM97.3115 8.49902V18H94.0771V5.84863H97.1206L97.3115 8.49902ZM100.973 5.77002L100.917 8.76855C100.759 8.74609 100.568 8.72738 100.344 8.7124C100.127 8.68994 99.9282 8.67871 99.7485 8.67871C99.2918 8.67871 98.895 8.73861 98.5581 8.8584C98.2287 8.9707 97.9517 9.13916 97.7271 9.36377C97.5099 9.58838 97.3452 9.86165 97.2329 10.1836C97.1281 10.5055 97.0682 10.8724 97.0532 11.2842L96.4019 11.082C96.4019 10.2959 96.4805 9.5734 96.6377 8.91455C96.7949 8.24821 97.0233 7.66797 97.3228 7.17383C97.6297 6.67969 98.0041 6.29785 98.4458 6.02832C98.8875 5.75879 99.3929 5.62402 99.9619 5.62402C100.142 5.62402 100.325 5.639 100.512 5.66895C100.699 5.69141 100.853 5.7251 100.973 5.77002Z" fill="white"/>
</svg>
